<svg width="15" height="14" viewBox="0 0 15 14" fill="none" xmlns="http://www.w3.org/2000/svg">
<path fill-rule="evenodd" clip-rule="evenodd" d="M0.0722656 7C0.0722656 3.13306 3.38362 0 7.47061 0C11.5576 0 14.8689 3.13306 14.8689 7C14.8689 10.8669 11.5576 14 7.47061 14C3.38362 14 0.0722656 10.8669 0.0722656 7ZM9.63324 9.54034L10.2299 8.83469C10.3091 8.74118 10.3458 8.62171 10.3318 8.50259C10.3179 8.38347 10.2545 8.27448 10.1556 8.19961L8.42534 7.00002V2.9355C8.42534 2.68608 8.21164 2.48389 7.94803 2.48389H6.9934C6.72979 2.48389 6.51609 2.68608 6.51609 2.9355V7.32602C6.51605 7.6689 6.68068 7.99322 6.96357 8.20752L8.96232 9.6109C9.06117 9.68573 9.1874 9.72034 9.31322 9.7071C9.43905 9.69387 9.55416 9.63388 9.63324 9.54034Z" fill="#9EB2BD"/>
</svg>
