<svg width="14" height="14" viewBox="0 0 14 14" fill="none" xmlns="http://www.w3.org/2000/svg">
<path fill-rule="evenodd" clip-rule="evenodd" d="M10.3257 1.75H11.7156C12.4829 1.75 13.1054 2.33789 13.1054 3.0625V4.375H0.133301V3.0625C0.133301 2.33789 0.755847 1.75 1.52317 1.75H2.91304V0.4375C2.91304 0.196875 3.12152 0 3.37633 0H4.30291C4.55772 0 4.7662 0.196875 4.7662 0.4375V1.75H8.47252V0.4375C8.47252 0.196875 8.681 0 8.93581 0H9.86239C10.1172 0 10.3257 0.196875 10.3257 0.4375V1.75ZM1.52317 14C0.755847 14 0.133301 13.4121 0.133301 12.6875V5.25H13.1054V12.6875C13.1054 13.4121 12.4829 14 11.7156 14H1.52317ZM9.74657 7C9.55546 7 9.3991 7.14766 9.3991 7.32812V8.42188C9.3991 8.60234 9.55546 8.75 9.74657 8.75H10.9048C11.0959 8.75 11.2523 8.60234 11.2523 8.42188V7.32812C11.2523 7.14766 11.0959 7 10.9048 7H9.74657ZM9.3991 10.8281C9.3991 10.6477 9.55546 10.5 9.74657 10.5H10.9048C11.0959 10.5 11.2523 10.6477 11.2523 10.8281V11.9219C11.2523 12.1023 11.0959 12.25 10.9048 12.25H9.74657C9.55546 12.25 9.3991 12.1023 9.3991 11.9219V10.8281ZM6.0401 7C5.84899 7 5.69263 7.14766 5.69263 7.32812V8.42188C5.69263 8.60234 5.84899 8.75 6.0401 8.75H7.19832C7.38943 8.75 7.54579 8.60234 7.54579 8.42188V7.32812C7.54579 7.14766 7.38943 7 7.19832 7H6.0401ZM5.69263 10.8281C5.69263 10.6477 5.84899 10.5 6.0401 10.5H7.19832C7.38943 10.5 7.54579 10.6477 7.54579 10.8281V11.9219C7.54579 12.1023 7.38943 12.25 7.19832 12.25H6.0401C5.84899 12.25 5.69263 12.1023 5.69263 11.9219V10.8281ZM2.33404 7C2.14294 7 1.98658 7.14766 1.98658 7.32812V8.42188C1.98658 8.60234 2.14294 8.75 2.33404 8.75H3.49227C3.68338 8.75 3.83974 8.60234 3.83974 8.42188V7.32812C3.83974 7.14766 3.68338 7 3.49227 7H2.33404ZM1.98658 10.8281C1.98658 10.6477 2.14294 10.5 2.33404 10.5H3.49227C3.68338 10.5 3.83974 10.6477 3.83974 10.8281V11.9219C3.83974 12.1023 3.68338 12.25 3.49227 12.25H2.33404C2.14294 12.25 1.98658 12.1023 1.98658 11.9219V10.8281Z" fill="#9EB2BD"/>
</svg>
