<svg width="15" height="13" viewBox="0 0 15 13" fill="none" xmlns="http://www.w3.org/2000/svg">
<path fill-rule="evenodd" clip-rule="evenodd" d="M14.1736 2.78572V3.25001C14.1736 3.37821 14.0681 3.48215 13.9379 3.48215H13.2308V3.83036C13.2308 4.02266 13.0724 4.17858 12.8772 4.17858H1.32719C1.13193 4.17858 0.973618 4.02266 0.973618 3.83036V3.48215H0.266476C0.136295 3.48215 0.0307617 3.37821 0.0307617 3.25001V2.78572C0.0307617 2.6918 0.0882263 2.60713 0.176345 2.57122L7.01206 0.0176507C7.06977 -0.00588357 7.13461 -0.00588357 7.19232 0.0176507L14.028 2.57122C14.1161 2.60713 14.1736 2.6918 14.1736 2.78572ZM13.4665 11.6071H0.737904C0.347355 11.6071 0.0307617 11.9189 0.0307617 12.3036V12.7679C0.0307617 12.8961 0.136295 13 0.266476 13H13.9379C14.0681 13 14.1736 12.8961 14.1736 12.7679V12.3036C14.1736 11.9189 13.857 11.6071 13.4665 11.6071ZM2.38816 10.2142V4.64282H4.27387V10.2142H6.15959V4.64282H8.0453V10.2142H9.93101V4.64282H11.8167V10.2142H12.8774C13.0727 10.2142 13.231 10.3702 13.231 10.5625V11.1428H0.973877V10.5625C0.973877 10.3702 1.13219 10.2142 1.32745 10.2142H2.38816Z" fill="#9EB2BD"/>
</svg>
