<svg width="30" height="30" viewBox="0 0 30 30" fill="none" xmlns="http://www.w3.org/2000/svg">
<path fill-rule="evenodd" clip-rule="evenodd" d="M30 15C30 6.71371 23.2863 0 15 0C6.71371 0 0 6.71371 0 15C0 23.2863 6.71371 30 15 30C23.2863 30 30 23.2863 30 15ZM17.8186 13.0644L13.2521 8.68537C12.6654 8.12287 12.6533 7.18537 13.2279 6.60473L13.8932 5.94545C14.4557 5.37691 15.3751 5.37691 15.9436 5.94545L23.9698 13.9777C24.5384 14.5402 24.5384 15.4596 23.9698 16.0281L15.9436 24.0483C15.3811 24.6168 14.4618 24.6168 13.8932 24.0483L13.2279 23.389C12.6533 22.8144 12.6654 21.8769 13.2521 21.3144L17.8186 16.9354H6.77428C5.96985 16.9354 5.32267 16.2882 5.32267 15.4838V14.516C5.32267 13.7116 5.96985 13.0644 6.77428 13.0644H17.8186Z" fill="#FEBB3A"/>
</svg>
