<svg width="22" height="21" viewBox="0 0 22 21" fill="none" xmlns="http://www.w3.org/2000/svg">
<path fill-rule="evenodd" clip-rule="evenodd" d="M3.40091 1.00064C2.10496 0.971179 1.03028 1.99743 1 3.29337C1.02735 4.59383 2.10032 5.6278 3.40091 5.607C4.70185 5.62831 5.77538 4.59419 5.80273 3.29337C5.77245 1.99707 4.69721 0.970669 3.40091 1.00064ZM21.0001 20.0913H16.8583V13.8868C16.8583 12.4077 16.8274 10.5123 14.7019 10.5123C12.5455 10.5123 12.2165 12.1186 12.2165 13.785V20.0913H8.07373V7.34589H12.051V9.08407H12.1092C12.9504 7.74138 14.449 6.95511 16.0319 7.02589C20.2292 7.02589 21.0001 9.66316 21.0001 13.0913V20.0913ZM1.33105 20.0916V7.34619H5.47742V20.0916H1.33105Z" fill="#172933"/>
<path d="M1 3.29337L0.500136 3.28169L0.499877 3.29278L0.500111 3.30388L1 3.29337ZM3.40091 1.00064L3.38955 1.50051L3.40101 1.50077L3.41247 1.50051L3.40091 1.00064ZM3.40091 5.607L3.4091 5.10707L3.40101 5.10694L3.39291 5.10707L3.40091 5.607ZM5.80273 3.29337L6.30262 3.30388L6.30285 3.29278L6.30259 3.28169L5.80273 3.29337ZM16.8583 20.0913H16.3583V20.5913H16.8583V20.0913ZM21.0001 20.0913V20.5913H21.5001V20.0913H21.0001ZM12.2165 20.0913V20.5913H12.7165V20.0913H12.2165ZM8.07373 20.0913H7.57373V20.5913H8.07373V20.0913ZM8.07373 7.34589V6.84589H7.57373V7.34589H8.07373ZM12.051 7.34589H12.551V6.84589H12.051V7.34589ZM12.051 9.08407H11.551V9.58407H12.051V9.08407ZM12.1092 9.08407V9.58407H12.3859L12.5329 9.34954L12.1092 9.08407ZM16.0319 7.02589L16.0096 7.52539L16.0207 7.52589H16.0319V7.02589ZM1.33105 7.34619V6.84619H0.831055V7.34619H1.33105ZM1.33105 20.0916H0.831055V20.5916H1.33105V20.0916ZM5.47742 7.34619H5.97742V6.84619H5.47742V7.34619ZM5.47742 20.0916V20.5916H5.97742V20.0916H5.47742ZM1.49986 3.30505C1.52369 2.28506 2.36954 1.47732 3.38955 1.50051L3.41227 0.500769C1.84037 0.465035 0.536862 1.70981 0.500136 3.28169L1.49986 3.30505ZM3.39291 5.10707C2.36745 5.12347 1.52145 4.30822 1.49989 3.28285L0.500111 3.30388C0.533246 4.87945 1.83319 6.13214 3.4089 6.10694L3.39291 5.10707ZM5.30284 3.28286C5.28127 4.30851 4.43484 5.12387 3.4091 5.10707L3.39272 6.10694C4.96886 6.13275 6.26948 4.87988 6.30262 3.30388L5.30284 3.28286ZM3.41247 1.50051C4.43275 1.47692 5.27903 2.28477 5.30286 3.30504L6.30259 3.28169C6.26587 1.70938 4.96168 0.464421 3.38935 0.500774L3.41247 1.50051ZM16.8583 20.5913H21.0001V19.5913H16.8583V20.5913ZM16.3583 13.8868V20.0913H17.3583V13.8868H16.3583ZM14.7019 11.0123C15.158 11.0123 15.4563 11.1132 15.6585 11.2478C15.8602 11.382 16.0076 11.5769 16.1153 11.8365C16.3436 12.3866 16.3583 13.1247 16.3583 13.8868H17.3583C17.3583 13.1698 17.3575 12.2207 17.0389 11.4532C16.8733 11.054 16.6144 10.6827 16.2125 10.4153C15.8112 10.1482 15.3085 10.0123 14.7019 10.0123V11.0123ZM12.7165 13.785C12.7165 12.962 12.8027 12.2607 13.0837 11.7736C13.2174 11.5417 13.3949 11.3596 13.6375 11.2313C13.8838 11.1011 14.2243 11.0123 14.7019 11.0123V10.0123C14.1013 10.0123 13.592 10.1242 13.1701 10.3473C12.7446 10.5723 12.4355 10.8959 12.2174 11.2739C11.7948 12.0066 11.7165 12.9416 11.7165 13.785H12.7165ZM12.7165 20.0913V13.785H11.7165V20.0913H12.7165ZM8.07373 20.5913H12.2165V19.5913H8.07373V20.5913ZM7.57373 7.34589V20.0913H8.57373V7.34589H7.57373ZM12.051 6.84589H8.07373V7.84589H12.051V6.84589ZM12.551 9.08407V7.34589H11.551V9.08407H12.551ZM12.1092 8.58407H12.051V9.58407H12.1092V8.58407ZM16.0542 6.52639C14.2914 6.44756 12.6224 7.32323 11.6855 8.8186L12.5329 9.34954C13.2785 8.15952 14.6067 7.46266 16.0096 7.52539L16.0542 6.52639ZM21.5001 13.0913C21.5001 11.3648 21.3117 9.71744 20.5074 8.49779C19.6711 7.22958 18.2442 6.52589 16.0319 6.52589V7.52589C18.0169 7.52589 19.0741 8.14084 19.6726 9.04831C20.303 10.0043 20.5001 11.3897 20.5001 13.0913H21.5001ZM21.5001 20.0913V13.0913H20.5001V20.0913H21.5001ZM0.831055 7.34619V20.0916H1.83105V7.34619H0.831055ZM5.47742 6.84619H1.33105V7.84619H5.47742V6.84619ZM5.97742 20.0916V7.34619H4.97742V20.0916H5.97742ZM1.33105 20.5916H5.47742V19.5916H1.33105V20.5916Z" fill="#072D4F" fill-opacity="0.01"/>
</svg>
