<svg width="25" height="25" viewBox="0 0 25 25" fill="none" xmlns="http://www.w3.org/2000/svg">
<path d="M18.6919 5.13086C18.143 5.13086 17.6483 5.46162 17.4385 5.9688C17.2287 6.47597 17.3452 7.05958 17.7337 7.44728C18.1222 7.83498 18.7061 7.95035 19.2128 7.73956C19.7196 7.52876 20.0493 7.03334 20.0482 6.4845C20.0467 5.73646 19.4399 5.13086 18.6919 5.13086Z" fill="#172933" stroke="#072D4F" stroke-opacity="0.01"/>
<path fill-rule="evenodd" clip-rule="evenodd" d="M6.96533 12.568C6.965 9.4216 9.5153 6.87062 12.6617 6.87012C15.8071 6.87312 18.3564 9.42197 18.3599 12.5674C18.3599 15.7138 15.8093 18.2645 12.6629 18.2647C9.51651 18.2648 6.96567 15.7144 6.96533 12.568ZM9.28895 13.965C9.85419 15.3289 11.1854 16.218 12.6618 16.2176C14.6764 16.2151 16.3088 14.5822 16.3108 12.5676C16.3108 11.0912 15.4215 9.76024 14.0574 9.19534C12.6934 8.63044 11.1234 8.94289 10.0796 9.98697C9.03577 11.0311 8.72371 12.6011 9.28895 13.965Z" fill="#172933"/>
<path d="M12.6617 6.87012L12.6622 6.37012L12.6616 6.37012L12.6617 6.87012ZM6.96533 12.568L6.46533 12.568L6.96533 12.568ZM18.3599 12.5674H18.8599V12.5668L18.3599 12.5674ZM12.6618 16.2176L12.6619 16.7176H12.6624L12.6618 16.2176ZM9.28895 13.965L8.82705 14.1564L9.28895 13.965ZM16.3108 12.5676L16.8108 12.5681V12.5676H16.3108ZM10.0796 9.98697L9.72599 9.63346V9.63346L10.0796 9.98697ZM12.6616 6.37012C9.23909 6.37066 6.46497 9.14552 6.46533 12.568L7.46533 12.5679C7.46503 9.69768 9.79151 7.37058 12.6618 7.37012L12.6616 6.37012ZM18.8599 12.5668C18.8561 9.14568 16.0833 6.37339 12.6622 6.37012L12.6612 7.37012C15.5309 7.37286 17.8567 9.69827 17.8599 12.5679L18.8599 12.5668ZM12.6629 18.7647C16.0855 18.7645 18.8599 15.9899 18.8599 12.5674H17.8599C17.8599 15.4377 15.5331 17.7645 12.6629 17.7647L12.6629 18.7647ZM6.46533 12.568C6.4657 15.9906 9.2404 18.7648 12.6629 18.7647L12.6629 17.7647C9.79261 17.7648 7.46564 15.4382 7.46533 12.5679L6.46533 12.568ZM12.6616 15.7176C11.3875 15.7179 10.2387 14.9506 9.75085 13.7736L8.82705 14.1564C9.46971 15.7072 10.9833 16.718 12.6619 16.7176L12.6616 15.7176ZM15.8108 12.5671C15.8091 14.306 14.4001 15.7154 12.6611 15.7176L12.6624 16.7176C14.9527 16.7147 16.8086 14.8584 16.8108 12.5681L15.8108 12.5671ZM13.8661 9.65729C15.0433 10.1448 15.8108 11.2935 15.8108 12.5676H16.8108C16.8108 10.889 15.7996 9.37567 14.2487 8.73339L13.8661 9.65729ZM10.4332 10.3405C11.334 9.43942 12.6889 9.16978 13.8661 9.65729L14.2487 8.73339C12.6979 8.09111 10.9128 8.44635 9.72599 9.63346L10.4332 10.3405ZM9.75085 13.7736C9.26305 12.5965 9.53235 11.2415 10.4332 10.3405L9.72599 9.63346C8.53918 10.8206 8.18438 12.6057 8.82705 14.1564L9.75085 13.7736Z" fill="#072D4F" fill-opacity="0.01"/>
<path fill-rule="evenodd" clip-rule="evenodd" d="M7.94909 24.1345H17.1855C21.0208 24.13 24.129 21.0226 24.1345 17.1873V7.94909C24.13 4.11308 21.0215 1.00451 17.1855 1H7.94909C4.11308 1.00451 1.00451 4.11308 1 7.94909V17.1855C1.00451 21.0215 4.11308 24.13 7.94909 24.1345ZM3.17627 7.94802C3.17928 5.31336 5.31434 3.1783 7.949 3.17529L17.1854 3.1762C19.82 3.17921 21.9551 5.31427 21.9581 7.94893V17.1871C21.9551 19.8218 19.82 21.9568 17.1854 21.9598H7.949C5.31434 21.9568 3.17928 19.8218 3.17627 17.1871V7.94802Z" fill="#172933"/>
<path d="M17.1855 24.1345V24.6345H17.186L17.1855 24.1345ZM7.94909 24.1345L7.9485 24.6345H7.94909V24.1345ZM24.1345 17.1873L24.6345 17.188V17.1873H24.1345ZM24.1345 7.94909H24.6345V7.9485L24.1345 7.94909ZM17.1855 1L17.186 0.5H17.1855V1ZM7.94909 1V0.5L7.9485 0.5L7.94909 1ZM1 7.94909L0.5 7.9485V7.94909H1ZM1 17.1855H0.5L0.5 17.186L1 17.1855ZM7.949 3.17529L7.94905 2.67529L7.94843 2.67529L7.949 3.17529ZM3.17627 7.94802L2.67627 7.94745V7.94802H3.17627ZM17.1854 3.1762L17.1859 2.6762H17.1854L17.1854 3.1762ZM21.9581 7.94893H22.4581V7.94836L21.9581 7.94893ZM21.9581 17.1871L22.4581 17.1877V17.1871H21.9581ZM17.1854 21.9598V22.4598H17.1859L17.1854 21.9598ZM7.949 21.9598L7.94843 22.4598H7.949V21.9598ZM3.17627 17.1871H2.67627L2.67627 17.1877L3.17627 17.1871ZM17.1855 23.6345H7.94909V24.6345H17.1855V23.6345ZM23.6345 17.1866C23.6294 20.7462 20.7445 23.6304 17.1849 23.6345L17.186 24.6345C21.297 24.6297 24.6286 21.2989 24.6345 17.188L23.6345 17.1866ZM23.6345 7.94909V17.1873H24.6345V7.94909H23.6345ZM17.1849 1.5C20.7452 1.50418 23.6304 4.38935 23.6345 7.94968L24.6345 7.9485C24.6297 3.83681 21.2977 0.504833 17.186 0.5L17.1849 1.5ZM7.94909 1.5H17.1855V0.5H7.94909V1.5ZM1.5 7.94968C1.50418 4.38935 4.38935 1.50418 7.94968 1.5L7.9485 0.5C3.83681 0.504833 0.504833 3.83681 0.5 7.9485L1.5 7.94968ZM1.5 17.1855V7.94909H0.5V17.1855H1.5ZM7.94968 23.6345C4.38935 23.6304 1.50418 20.7452 1.5 17.1849L0.5 17.186C0.504833 21.2977 3.83681 24.6297 7.9485 24.6345L7.94968 23.6345ZM7.94843 2.67529C5.03807 2.67861 2.67959 5.0371 2.67627 7.94745L3.67627 7.94859C3.67896 5.58963 5.59061 3.67798 7.94957 3.67529L7.94843 2.67529ZM17.1854 2.6762L7.94905 2.67529L7.94895 3.67529L17.1853 3.6762L17.1854 2.6762ZM22.4581 7.94836C22.4548 5.038 20.0963 2.67952 17.1859 2.6762L17.1848 3.6762C19.5438 3.67889 21.4554 5.59054 21.4581 7.9495L22.4581 7.94836ZM22.4581 17.1871V7.94893H21.4581V17.1871H22.4581ZM17.1859 22.4598C20.0963 22.4565 22.4548 20.098 22.4581 17.1877L21.4581 17.1865C21.4554 19.5455 19.5438 21.4571 17.1848 21.4598L17.1859 22.4598ZM7.949 22.4598H17.1854V21.4598H7.949V22.4598ZM2.67627 17.1877C2.67959 20.098 5.03807 22.4565 7.94843 22.4598L7.94957 21.4598C5.59061 21.4571 3.67896 19.5455 3.67627 17.1865L2.67627 17.1877ZM2.67627 7.94802V17.1871H3.67627V7.94802H2.67627Z" fill="#072D4F" fill-opacity="0.01"/>
</svg>
