<svg width="30" height="21" viewBox="0 0 30 21" fill="none" xmlns="http://www.w3.org/2000/svg">
<path fill-rule="evenodd" clip-rule="evenodd" d="M22.4682 1C25.801 1 28.5027 3.70176 28.5027 7.03455L28.5009 14.2164C28.5009 17.5492 25.7992 20.2509 22.4664 20.2509H7.03455C3.70176 20.2509 1 17.5492 1 14.2164V7.03455C1 3.70176 3.70176 1 7.03455 1H22.4682ZM12.5081 14.5864L19.4272 11.1627H19.4254C19.7063 11.0109 19.4117 10.6091 19.139 10.45L12.5154 6.84636C12.2435 6.69181 11.3145 6.88818 11.3145 7.2009V14.2282C11.3145 14.5364 12.2354 14.7336 12.5081 14.5864Z" fill="#172933"/>
<path d="M28.5027 7.03455L29.0027 7.03467V7.03455H28.5027ZM28.5009 14.2164L28.0009 14.2162V14.2164H28.5009ZM19.4272 11.1627L19.6489 11.6109L19.4272 10.6627V11.1627ZM12.5081 14.5864L12.2863 14.1382L12.2784 14.1422L12.2705 14.1464L12.5081 14.5864ZM19.4254 11.1627L19.1876 10.7229L19.4254 11.6627V11.1627ZM19.139 10.45L19.3909 10.0181L19.3845 10.0144L19.378 10.0108L19.139 10.45ZM12.5154 6.84636L12.2682 7.28109L12.2764 7.28556L12.5154 6.84636ZM29.0027 7.03455C29.0027 3.42562 26.0771 0.5 22.4682 0.5V1.5C25.5248 1.5 28.0027 3.9779 28.0027 7.03455H29.0027ZM29.0009 14.2165L29.0027 7.03467L28.0027 7.03442L28.0009 14.2162L29.0009 14.2165ZM22.4664 20.7509C26.0753 20.7509 29.0009 17.8253 29.0009 14.2164H28.0009C28.0009 17.273 25.523 19.7509 22.4664 19.7509V20.7509ZM7.03455 20.7509H22.4664V19.7509H7.03455V20.7509ZM0.5 14.2164C0.5 17.8253 3.42562 20.7509 7.03455 20.7509V19.7509C3.9779 19.7509 1.5 17.273 1.5 14.2164H0.5ZM0.5 7.03455V14.2164H1.5V7.03455H0.5ZM7.03455 0.5C3.42562 0.5 0.5 3.42562 0.5 7.03455H1.5C1.5 3.9779 3.9779 1.5 7.03455 1.5V0.5ZM22.4682 0.5H7.03455V1.5H22.4682V0.5ZM19.2054 10.7146L12.2863 14.1382L12.7298 15.0345L19.6489 11.6109L19.2054 10.7146ZM19.4254 11.6627H19.4272V10.6627H19.4254V11.6627ZM18.8871 10.8819C18.9128 10.8969 18.948 10.9234 18.9824 10.9583C19.0174 10.9938 19.0381 11.0242 19.0464 11.0402C19.0584 11.0633 19.0315 11.0268 19.0413 10.9481C19.0468 10.9033 19.0639 10.8526 19.0969 10.806C19.1292 10.7604 19.1653 10.7349 19.1876 10.7229L19.6631 11.6026C19.8642 11.4939 20.0046 11.3057 20.0337 11.0712C20.0587 10.8695 19.9938 10.6942 19.9332 10.578C19.8117 10.3448 19.5983 10.139 19.3909 10.0181L18.8871 10.8819ZM12.2764 7.28556L18.9 10.8892L19.378 10.0108L12.7543 6.40715L12.2764 7.28556ZM11.8145 7.2009C11.8145 7.2925 11.7789 7.35712 11.7566 7.38725C11.7368 7.41399 11.7241 7.41915 11.7383 7.40982C11.7679 7.39035 11.8358 7.35895 11.9382 7.33248C12.0364 7.30707 12.138 7.29355 12.2193 7.29254C12.2596 7.29204 12.2868 7.29473 12.3013 7.29721C12.3195 7.30033 12.3022 7.30033 12.2682 7.28102L12.7625 6.4117C12.5754 6.30533 12.3553 6.29077 12.2068 6.29262C12.0374 6.29473 11.8558 6.32088 11.6878 6.36433C11.5239 6.40672 11.3425 6.47339 11.1895 6.57387C11.0594 6.65924 10.8145 6.86074 10.8145 7.2009H11.8145ZM11.8145 14.2282V7.2009H10.8145V14.2282H11.8145ZM12.2705 14.1464C12.3036 14.1286 12.3195 14.129 12.3005 14.132C12.2852 14.1344 12.2574 14.1368 12.2169 14.136C12.1353 14.1343 12.0338 14.1202 11.936 14.0945C11.8341 14.0677 11.7666 14.0364 11.7372 14.017C11.723 14.0077 11.7359 14.013 11.7559 14.0398C11.7783 14.07 11.8145 14.1353 11.8145 14.2282H10.8145C10.8145 14.568 11.06 14.7686 11.188 14.8527C11.3398 14.9524 11.5196 15.019 11.682 15.0617C11.8485 15.1054 12.0284 15.1323 12.1961 15.1358C12.3433 15.1388 12.56 15.1265 12.7457 15.0263L12.2705 14.1464Z" fill="#072D4F" fill-opacity="0.01"/>
</svg>
