<svg width="23" height="20" viewBox="0 0 23 20" fill="none" xmlns="http://www.w3.org/2000/svg">
<path d="M20.3909 4.75818C20.4055 4.96727 20.4055 5.17545 20.4055 5.38455C20.4055 11.7527 15.7191 19.0909 7.15273 19.0909C4.60687 19.0946 2.11731 18.3418 0 16.9282C0.373296 16.9708 0.74883 16.9909 1.12455 16.9882C3.23245 16.9901 5.27614 16.2629 6.90909 14.93C4.88902 14.8713 3.13383 13.5249 2.55364 11.5891C2.84459 11.6367 3.13881 11.6616 3.43364 11.6636C3.84749 11.6625 4.25943 11.6074 4.65909 11.5C2.45277 11.0058 0.894325 9.03354 0.923636 6.77273V6.71182C1.56548 7.08342 2.28805 7.29339 3.02909 7.32364C1.71904 6.40894 0.942391 4.90866 0.951818 3.31091C0.94945 2.45912 1.16876 1.62137 1.58818 0.88C3.91065 3.86853 7.41212 5.70661 11.1909 5.92091C11.1162 5.55804 11.0775 5.18867 11.0755 4.81818C11.0538 3.56157 11.5324 2.34786 12.4059 1.44421C13.2793 0.54056 14.4761 0.0210376 15.7327 0C17.0317 0.000940589 18.2691 0.553862 19.1364 1.52091C20.1824 1.31173 21.1829 0.918015 22.0909 0.358182C21.7512 1.46134 21.0236 2.40426 20.0427 3.01273C20.9705 2.90359 21.876 2.65215 22.7273 2.26727C22.0939 3.22289 21.3041 4.06498 20.3909 4.75818Z" fill="#172933"/>
</svg>
