<svg width="23" height="23" viewBox="0 0 23 23" fill="none" xmlns="http://www.w3.org/2000/svg">
<path fill-rule="evenodd" clip-rule="evenodd" d="M17.3884 15.6096L22.8417 21.0628C23.0528 21.274 23.0528 21.6154 22.8417 21.8265L21.8265 22.8417C21.6154 23.0528 21.274 23.0528 21.0628 22.8417L15.6096 17.3884C15.5108 17.2851 15.4524 17.1503 15.4524 17.0066V16.4137C13.8128 17.8286 11.6791 18.6866 9.34329 18.6866C4.18202 18.6866 0 14.5046 0 9.34329C0 4.18202 4.18202 0 9.34329 0C14.5046 0 18.6866 4.18202 18.6866 9.34329C18.6866 11.6791 17.8286 13.8128 16.4137 15.4524H17.0066C17.1503 15.4524 17.2851 15.5063 17.3884 15.6096ZM2.15614 9.34329C2.15614 13.3142 5.37239 16.5304 9.34329 16.5304C13.3142 16.5304 16.5304 13.3142 16.5304 9.34329C16.5304 5.37239 13.3142 2.15614 9.34329 2.15614C5.37239 2.15614 2.15614 5.37239 2.15614 9.34329Z" fill="#05213B"/>
</svg>
