<svg width="192" height="66" viewBox="0 0 192 66" fill="none" xmlns="http://www.w3.org/2000/svg">
<path d="M40.6666 19.8C45.5819 19.8 49.5666 15.8153 49.5666 10.9C49.5666 5.98467 45.5819 2 40.6666 2C35.7513 2 31.7666 5.98467 31.7666 10.9C31.7666 15.8153 35.7513 19.8 40.6666 19.8Z" fill="#F7AC1B"/>
<path d="M11 19.8V54.0028C11 54.0028 24.709 53.4925 40.6667 61.3334C56.6244 53.4925 70.3333 54.0028 70.3333 54.0028V19.8C70.3333 19.8 54.1531 19.8 40.6667 27.1307C27.1802 19.8 11 19.8 11 19.8Z" fill="#172933"/>
<path d="M105.367 37.95C102.8 37.95 100.5 37.5333 98.4665 36.7C96.4332 35.8667 94.7998 34.6333 93.5665 33C92.3665 31.3667 91.7332 29.4 91.6665 27.1H100.767C100.9 28.4 101.35 29.4 102.117 30.1C102.883 30.7667 103.883 31.1 105.117 31.1C106.383 31.1 107.383 30.8167 108.117 30.25C108.85 29.65 109.217 28.8333 109.217 27.8C109.217 26.9333 108.917 26.2167 108.317 25.65C107.75 25.0833 107.033 24.6167 106.167 24.25C105.333 23.8833 104.133 23.4667 102.567 23C100.3 22.3 98.4498 21.6 97.0165 20.9C95.5832 20.2 94.3498 19.1667 93.3165 17.8C92.2832 16.4333 91.7665 14.65 91.7665 12.45C91.7665 9.18333 92.9498 6.63333 95.3165 4.8C97.6832 2.93333 100.767 2 104.567 2C108.433 2 111.55 2.93333 113.917 4.8C116.283 6.63333 117.55 9.2 117.717 12.5H108.467C108.4 11.3667 107.983 10.4833 107.217 9.85C106.45 9.18333 105.467 8.85 104.267 8.85C103.233 8.85 102.4 9.13333 101.767 9.7C101.133 10.2333 100.817 11.0167 100.817 12.05C100.817 13.1833 101.35 14.0667 102.417 14.7C103.483 15.3333 105.15 16.0167 107.417 16.75C109.683 17.5167 111.517 18.25 112.917 18.95C114.35 19.65 115.583 20.6667 116.617 22C117.65 23.3333 118.167 25.05 118.167 27.15C118.167 29.15 117.65 30.9667 116.617 32.6C115.617 34.2333 114.15 35.5333 112.217 36.5C110.283 37.4667 108 37.95 105.367 37.95Z" fill="#172933"/>
<path d="M145.778 37.6L133.978 22.1V37.6H125.428V2.5H133.978V17.9L145.678 2.5H155.728L142.128 19.7L156.228 37.6H145.778Z" fill="#172933"/>
<path d="M187.542 2.5V9.35H178.242V37.6H169.692V9.35H160.392V2.5H187.542Z" fill="#172933"/>
<path d="M91.6665 52.77C91.6665 51.41 91.9732 50.19 92.5865 49.11C93.1998 48.0167 94.0332 47.1633 95.0865 46.55C96.1532 45.9367 97.3332 45.63 98.6265 45.63C100.147 45.63 101.473 45.9967 102.607 46.73C103.74 47.4633 104.567 48.5033 105.087 49.85H102.907C102.52 49.01 101.96 48.3633 101.227 47.91C100.507 47.4567 99.6398 47.23 98.6265 47.23C97.6532 47.23 96.7798 47.4567 96.0065 47.91C95.2332 48.3633 94.6265 49.01 94.1865 49.85C93.7465 50.6767 93.5265 51.65 93.5265 52.77C93.5265 53.8767 93.7465 54.85 94.1865 55.69C94.6265 56.5167 95.2332 57.1567 96.0065 57.61C96.7798 58.0633 97.6532 58.29 98.6265 58.29C99.6398 58.29 100.507 58.07 101.227 57.63C101.96 57.1767 102.52 56.53 102.907 55.69H105.087C104.567 57.0233 103.74 58.0567 102.607 58.79C101.473 59.51 100.147 59.87 98.6265 59.87C97.3332 59.87 96.1532 59.57 95.0865 58.97C94.0332 58.3567 93.1998 57.51 92.5865 56.43C91.9732 55.35 91.6665 54.13 91.6665 52.77Z" fill="#172933"/>
<path d="M113.376 59.93C112.349 59.93 111.416 59.6967 110.576 59.23C109.749 58.7633 109.096 58.1033 108.616 57.25C108.149 56.3833 107.916 55.3833 107.916 54.25C107.916 53.13 108.156 52.1433 108.636 51.29C109.129 50.4233 109.796 49.7633 110.636 49.31C111.476 48.8433 112.416 48.61 113.456 48.61C114.496 48.61 115.436 48.8433 116.276 49.31C117.116 49.7633 117.776 50.4167 118.256 51.27C118.749 52.1233 118.996 53.1167 118.996 54.25C118.996 55.3833 118.742 56.3833 118.236 57.25C117.742 58.1033 117.069 58.7633 116.216 59.23C115.362 59.6967 114.416 59.93 113.376 59.93ZM113.376 58.33C114.029 58.33 114.642 58.1767 115.216 57.87C115.789 57.5633 116.249 57.1033 116.596 56.49C116.956 55.8767 117.136 55.13 117.136 54.25C117.136 53.37 116.962 52.6233 116.616 52.01C116.269 51.3967 115.816 50.9433 115.256 50.65C114.696 50.3433 114.089 50.19 113.436 50.19C112.769 50.19 112.156 50.3433 111.596 50.65C111.049 50.9433 110.609 51.3967 110.276 52.01C109.942 52.6233 109.776 53.37 109.776 54.25C109.776 55.1433 109.936 55.8967 110.256 56.51C110.589 57.1233 111.029 57.5833 111.576 57.89C112.122 58.1833 112.722 58.33 113.376 58.33Z" fill="#172933"/>
<path d="M124.009 44.95V59.75H122.189V44.95H124.009Z" fill="#172933"/>
<path d="M129.731 44.95V59.75H127.911V44.95H129.731Z" fill="#172933"/>
<path d="M143.632 53.85C143.632 54.1967 143.612 54.5633 143.572 54.95H134.812C134.879 56.03 135.246 56.8767 135.912 57.49C136.592 58.09 137.412 58.39 138.372 58.39C139.159 58.39 139.812 58.21 140.332 57.85C140.866 57.4767 141.239 56.9833 141.452 56.37H143.412C143.119 57.4233 142.532 58.2833 141.652 58.95C140.772 59.6033 139.679 59.93 138.372 59.93C137.332 59.93 136.399 59.6967 135.572 59.23C134.759 58.7633 134.119 58.1033 133.652 57.25C133.186 56.3833 132.952 55.3833 132.952 54.25C132.952 53.1167 133.179 52.1233 133.632 51.27C134.086 50.4167 134.719 49.7633 135.532 49.31C136.359 48.8433 137.306 48.61 138.372 48.61C139.412 48.61 140.332 48.8367 141.132 49.29C141.932 49.7433 142.546 50.37 142.972 51.17C143.412 51.9567 143.632 52.85 143.632 53.85ZM141.752 53.47C141.752 52.7767 141.599 52.1833 141.292 51.69C140.986 51.1833 140.566 50.8033 140.032 50.55C139.512 50.2833 138.932 50.15 138.292 50.15C137.372 50.15 136.586 50.4433 135.932 51.03C135.292 51.6167 134.926 52.43 134.832 53.47H141.752Z" fill="#172933"/>
<path d="M151.355 48.61C152.301 48.61 153.128 48.8167 153.835 49.23C154.555 49.6433 155.088 50.1633 155.435 50.79V48.79H157.275V59.99C157.275 60.99 157.061 61.8767 156.635 62.65C156.208 63.4367 155.595 64.05 154.795 64.49C154.008 64.93 153.088 65.15 152.035 65.15C150.595 65.15 149.395 64.81 148.435 64.13C147.475 63.45 146.908 62.5233 146.735 61.35H148.535C148.735 62.0167 149.148 62.55 149.775 62.95C150.401 63.3633 151.155 63.57 152.035 63.57C153.035 63.57 153.848 63.2567 154.475 62.63C155.115 62.0033 155.435 61.1233 155.435 59.99V57.69C155.075 58.33 154.541 58.8633 153.835 59.29C153.128 59.7167 152.301 59.93 151.355 59.93C150.381 59.93 149.495 59.69 148.695 59.21C147.908 58.73 147.288 58.0567 146.835 57.19C146.381 56.3233 146.155 55.3367 146.155 54.23C146.155 53.11 146.381 52.13 146.835 51.29C147.288 50.4367 147.908 49.7767 148.695 49.31C149.495 48.8433 150.381 48.61 151.355 48.61ZM155.435 54.25C155.435 53.4233 155.268 52.7033 154.935 52.09C154.601 51.4767 154.148 51.01 153.575 50.69C153.015 50.3567 152.395 50.19 151.715 50.19C151.035 50.19 150.415 50.35 149.855 50.67C149.295 50.99 148.848 51.4567 148.515 52.07C148.181 52.6833 148.015 53.4033 148.015 54.23C148.015 55.07 148.181 55.8033 148.515 56.43C148.848 57.0433 149.295 57.5167 149.855 57.85C150.415 58.17 151.035 58.33 151.715 58.33C152.395 58.33 153.015 58.17 153.575 57.85C154.148 57.5167 154.601 57.0433 154.935 56.43C155.268 55.8033 155.435 55.0767 155.435 54.25Z" fill="#172933"/>
<path d="M171.15 53.85C171.15 54.1967 171.13 54.5633 171.09 54.95H162.33C162.397 56.03 162.764 56.8767 163.43 57.49C164.11 58.09 164.93 58.39 165.89 58.39C166.677 58.39 167.33 58.21 167.85 57.85C168.384 57.4767 168.757 56.9833 168.97 56.37H170.93C170.637 57.4233 170.05 58.2833 169.17 58.95C168.29 59.6033 167.197 59.93 165.89 59.93C164.85 59.93 163.917 59.6967 163.09 59.23C162.277 58.7633 161.637 58.1033 161.17 57.25C160.704 56.3833 160.47 55.3833 160.47 54.25C160.47 53.1167 160.697 52.1233 161.15 51.27C161.604 50.4167 162.237 49.7633 163.05 49.31C163.877 48.8433 164.824 48.61 165.89 48.61C166.93 48.61 167.85 48.8367 168.65 49.29C169.45 49.7433 170.064 50.37 170.49 51.17C170.93 51.9567 171.15 52.85 171.15 53.85ZM169.27 53.47C169.27 52.7767 169.117 52.1833 168.81 51.69C168.504 51.1833 168.084 50.8033 167.55 50.55C167.03 50.2833 166.45 50.15 165.81 50.15C164.89 50.15 164.104 50.4433 163.45 51.03C162.81 51.6167 162.444 52.43 162.35 53.47H169.27Z" fill="#172933"/>
</svg>
