<svg width="8" height="15" viewBox="0 0 8 15" fill="none" xmlns="http://www.w3.org/2000/svg">
<path d="M1.16984 14.9998C1.31923 15.0003 1.46684 14.9673 1.60182 14.9033C1.7368 14.8393 1.85572 14.7458 1.94984 14.6298L6.77984 8.62979C6.92692 8.45085 7.00732 8.22641 7.00732 7.99479C7.00732 7.76316 6.92692 7.53872 6.77984 7.35979L1.77984 1.35979C1.6101 1.15557 1.36619 1.02715 1.10176 1.00277C0.837334 0.978387 0.574053 1.06005 0.369836 1.22979C0.16562 1.39953 0.0371957 1.64344 0.012816 1.90786C-0.0115638 2.17229 0.0700974 2.43557 0.239836 2.63979L4.70984 7.99979L0.389837 13.3598C0.267554 13.5066 0.189877 13.6853 0.165997 13.8749C0.142118 14.0644 0.173034 14.2568 0.25509 14.4294C0.337146 14.6019 0.466906 14.7473 0.629016 14.8484C0.791127 14.9495 0.978803 15.002 1.16984 14.9998Z" fill="black"/>
</svg>
