<svg width="123" height="123" viewBox="0 0 123 123" fill="none" xmlns="http://www.w3.org/2000/svg">
<path d="M61.5 0C77.8108 0 93.4536 6.47944 104.987 18.0129C116.521 29.5464 123 45.1892 123 61.5C123 77.8108 116.521 93.4536 104.987 104.987C93.4536 116.521 77.8108 123 61.5 123C45.1892 123 29.5464 116.521 18.0129 104.987C6.47944 93.4536 0 77.8108 0 61.5C0 45.1892 6.47944 29.5464 18.0129 18.0129C29.5464 6.47944 45.1892 0 61.5 0ZM61.5 114.214C75.4807 114.214 88.8888 108.66 98.7746 98.7746C108.66 88.8888 114.214 75.4807 114.214 61.5C114.214 47.5193 108.66 34.1112 98.7746 24.2254C88.8888 14.3395 75.4807 8.78571 61.5 8.78571C47.5193 8.78571 34.1112 14.3395 24.2254 24.2254C14.3395 34.1112 8.78571 47.5193 8.78571 61.5C8.78571 75.4807 14.3395 88.8888 24.2254 98.7746C34.1112 108.66 47.5193 114.214 61.5 114.214ZM54.9107 80.2224L82.9986 61.5L54.9107 42.7776V80.2224ZM56.3691 33.1836L90.6159 56.0177C91.5183 56.6195 92.2583 57.4347 92.77 58.3911C93.2818 59.3474 93.5496 60.4153 93.5496 61.5C93.5496 62.5847 93.2818 63.6526 92.77 64.6089C92.2583 65.5653 91.5183 66.3805 90.6159 66.9823L56.3691 89.8164C55.3768 90.4778 54.2236 90.8576 53.0324 90.9152C51.8412 90.9728 50.6567 90.706 49.6052 90.1432C48.5537 89.5805 47.6746 88.743 47.0617 87.7199C46.4488 86.6969 46.1251 85.5267 46.125 84.3341V38.6571C46.1251 37.4646 46.4488 36.2943 47.0617 35.2713C47.6746 34.2482 48.5537 33.4107 49.6052 32.848C50.6567 32.2852 51.8412 32.0184 53.0324 32.076C54.2236 32.1336 55.3768 32.5134 56.3691 33.1749V33.1836Z" fill="#FEBB3A"/>
</svg>
